#!OML:ASF F:\VICON\USERDATA\INSTALL\rory3\rory3.ASF
:FULLY-SPECIFIED
:DEGREES
4008
root -0.499906 17.995 -9.06309 1250.89 66.1178 -1627.73
lowerback 10.7555 0.248794 -3.41163
upperback 0.700264 -0.00379349 0.629625
thorax -5.30317 0.104117 2.58278
lowerneck -19.4338 -6.31221 -11.9158
upperneck 34.3736 -6.71372 7.58581
head 16.3173 -2.91411 4.17756
rclavicle -2.22887e-014 -3.97569e-016
rhumerus -38.5356 -14.3316 -78.0747
rradius 32.2776
rwrist 1.92831
rhand -17.4086 8.17339
rfingers 7.12502
rthumb 8.84105 -21.6214
lclavicle -2.22887e-014 -3.97569e-016
lhumerus -33.004 -0.0673755 85.5438
lradius 32.518
lwrist -11.1156
lhand -18.2326 24.806
lfingers 7.12502
lthumb 8.04581 54.6328
rfemur -12.5278 -5.89633 27.4203
rtibia 21.3339
rfoot -5.33049 -9.04125
rtoes 21.8106
lfemur -0.183847 0.874113 -20.7351
ltibia 47.256
lfoot 15.9075 -15.6809
ltoes -3.69526
4009
root -0.391882 17.9913 -9.09784 1251.22 66.5296 -1627.18
lowerback 10.9576 0.324951 -3.21647
upperback 0.704136 0.122237 0.751289
thorax -5.4209 0.165512 2.58168
lowerneck -19.3037 -6.3948 -12.2085
upperneck 34.2749 -6.83075 7.81025
head 16.2815 -2.97365 4.30179
rclavicle -4.55714e-014 3.57812e-015
rhumerus -38.5315 -13.9972 -78.1144
rradius 32.5831
rwrist 1.4861
rhand -17.8242 8.04114
rfingers 7.12502
rthumb 8.43998 -21.7702
lclavicle -4.55714e-014 3.57812e-015
lhumerus -33.0292 -1.14039 86.1046
lradius 32.4915
lwrist -11.1732
lhand -17.9913 24.6722
lfingers 7.12502
lthumb 8.27869 54.49
rfemur -11.817 -5.58929 27.7494
rtibia 21.1556
rfoot -5.711 -9.10802
rtoes 22.313
lfemur -1.25403 0.753581 -20.2961
ltibia 49.0624
lfoot 14.2513 -14.9469
ltoes -3.23837
4010
root -0.283437 17.9905 -9.13683 1251.71 67.0196 -1626.54
lowerback 11.0595 0.424097 -2.91594
upperback 0.715255 0.293682 0.833106
thorax -5.47684 0.24474 2.47115
lowerneck -19.2022 -6.46552 -12.3339
upperneck 34.159 -6.98046 8.00548
head 16.238 -3.02816 4.37569
rclavicle 2.24875e-014 1.31198e-014
rhumerus -38.5362 -13.926 -78.0683
rradius 32.8815
rwrist 1.3411
rhand -17.7761 8.30896
rfingers 7.12502
rthumb 8.48645 -21.5005
lclavicle 2.24875e-014 1.31198e-014
lhumerus -33.0452 -2.30836 86.5978
lradius 32.4884
lwrist -11.176
lhand -17.8105 24.6848
lfingers 7.12502
lthumb 8.45325 54.4956
rfemur -11.1005 -5.09702 28.0831
rtibia 20.9185
rfoot -6.16165 -9.13522
rtoes 23.8412
lfemur -2.34256 0.71162 -19.8311
ltibia 50.7295
lfoot 12.4782 -14.0196
ltoes -3.45386
4011
root -0.174645 17.9916 -9.17414 1252.32 67.4864 -1625.87
lowerback 11.0763 0.467564 -2.63615
upperback 0.675346 0.38892 0.908352
thorax -5.53304 0.286588 2.37711
lowerneck -19.07 -6.47338 -12.2989
upperneck 34.097 -7.04302 8.06003
head 16.1849 -3.04414 4.3792
rclavicle 5.44173e-015 -1.35174e-014
rhumerus -38.5283 -13.7986 -78.093
rradius 33.1082
rwrist 1.27383
rhand -17.6237 8.49883
rfingers 7.12502
rthumb 8.63353 -21.3046
lclavicle 5.44173e-015 -1.35174e-014
lhumerus -33.327 -2.33293 86.8294
lradius 32.5843
lwrist -12.1603
lhand -17.4269 24.2704
lfingers 7.12502
lthumb 8.82338 54.066
rfemur -10.4799 -4.77955 28.4365
rtibia 20.6092
rfoot -6.4356 -9.00947
rtoes 24.7658
lfemur -3.50908 0.718662 -19.3334
ltibia 52.2385
lfoot 10.8527 -13.2
ltoes -4.31733
4012
root -0.0673701 17.991 -9.21196 1252.73 68.0324 -1625.38
lowerback 11.0859 0.498959 -2.40938
upperback 0.675994 0.463328 0.983204
thorax -5.54108 0.318696 2.31576
lowerneck -19.0386 -6.43442 -12.2538
upperneck 34.0682 -6.98673 8.00002
head 16.1486 -3.02536 4.35388
rclavicle -2.95692e-014 -1.11319e-014
rhumerus -38.3604 -13.6159 -78.1452
rradius 33.2125
rwrist 1.36617
rhand -17.7553 8.47021
rfingers 7.12502
rthumb 8.50651 -21.3384
lclavicle -2.95692e-014 -1.11319e-014
lhumerus -33.6251 -1.91358 86.974
lradius 32.7413
lwrist -13.1106
lhand -16.9811 24.0698
lfingers 7.12502
lthumb 9.25358 53.8467
rfemur -9.85843 -4.51249 28.7218
rtibia 20.2858
rfoot -6.56479 -8.83452
rtoes 24.6348
lfemur -4.61574 0.769139 -18.9623
ltibia 53.5702
lfoot 9.28222 -12.2472
ltoes -5.45524
4013
root 0.0384477 17.99 -9.2513 1252.97 68.6776 -1625
lowerback 11.0995 0.563497 -2.14922
upperback 0.768933 0.584543 0.987249
thorax -5.4552 0.371025 2.15368
lowerneck -19.0643 -6.38466 -12.1882
upperneck 34.016 -6.94269 8.00752
head 16.118 -2.99954 4.35104
rclavicle 4.57702e-014 5.1684e-015
rhumerus -38.0151 -13.4875 -78.2881
rradius 33.2434
rwrist 1.48672
rhand -17.9203 8.48904
rfingers 7.12502
rthumb 8.34728 -21.326
lclavicle 4.57702e-014 5.1684e-015
lhumerus -33.5992 -2.04485 87.0579
lradius 32.7722
lwrist -13.3456
lhand -16.7562 24.3488
lfingers 7.12502
lthumb 9.47058 54.116
rfemur -9.18971 -4.2403 28.9299
rtibia 20.0097
rfoot -6.72041 -8.47207
rtoes 24.2752
lfemur -5.5973 0.780748 -18.6644
ltibia 54.7287
lfoot 8.11131 -10.9902
ltoes -5.1942
4014
root 0.143074 17.9916 -9.2884 1253.05 69.1824 -1624.78
lowerback 11.1006 0.631768 -1.97978
upperback 0.886268 0.698749 0.967856
thorax -5.33616 0.42184 2.01968
lowerneck -19.1103 -6.41029 -12.1935
upperneck 33.9424 -7.01733 8.10113
head 16.1079 -3.02064 4.37382
rclavicle 4.82798e-014 4.37326e-015
rhumerus -37.6032 -13.6772 -78.342
rradius 33.1738
rwrist 1.71159
rhand -17.865 8.70482
rfingers 7.12502
rthumb 8.40057 -21.1081
lclavicle 4.82798e-014 4.37326e-015
lhumerus -33.3978 -2.50462 87.1999
lradius 32.6919
lwrist -13.2944
lhand -16.5971 24.4127
lfingers 7.12502
lthumb 9.62407 54.1729
rfemur -8.58904 -4.1849 29.0691
rtibia 19.8649
rfoot -6.94167 -8.10707
rtoes 24.0092
lfemur -6.55559 0.658639 -18.4361
ltibia 55.6649
lfoot 7.14957 -9.93229
ltoes -5.35753
4015
root 0.243952 17.9913 -9.32506 1253.06 69.5329 -1624.68
lowerback 11.2003 0.671419 -1.86719
upperback 0.913603 0.76381 0.94631
thorax -5.3646 0.451585 1.92271
lowerneck -19.0816 -6.43857 -12.1192
upperneck 33.9413 -7.09184 8.09694
head 16.1068 -3.0433 4.34382
rclavicle 1.0635e-014 -3.97569e-015
rhumerus -37.3815 -13.7631 -78.3443
rradius 33.2212
rwrist 1.62332
rhand -17.5312 8.88749
rfingers 7.12502
rthumb 8.72278 -20.9123
lclavicle 1.0635e-014 -3.97569e-015
lhumerus -33.3586 -2.52105 87.2719
lradius 32.5707
lwrist -13.4139
lhand -16.7092 24.0501
lfingers 7.12502
lthumb 9.51592 53.8152
rfemur -8.1051 -4.12836 29.1581
rtibia 19.9314
rfoot -7.35648 -7.98453
rtoes 23.9127
lfemur -7.53143 0.383295 -18.2763
ltibia 56.3908
lfoot 6.56455 -8.6533
ltoes -4.79377
4016
root 0.343997 17.9778 -9.36235 1252.95 69.9966 -1624.71
lowerback 11.3065 0.731977 -1.82389
upperback 0.887674 0.847359 0.943328
thorax -5.45456 0.492614 1.88109
lowerneck -18.9595 -6.42193 -12.0668
upperneck 33.936 -7.06607 8.00709
head 16.0635 -3.04002 4.30023
rclavicle -7.7526e-015 -1.59028e-014
rhumerus -37.222 -13.689 -78.3329
rradius 33.2427
rwrist 1.73657
rhand -17.3341 8.91622
rfingers 7.12502
rthumb 8.91291 -20.8755
lclavicle -7.7526e-015 -1.59028e-014
lhumerus -33.4793 -2.1243 87.2722
lradius 32.5247
lwrist -13.3153
lhand -16.9024 23.7501
lfingers 7.12502
lthumb 9.3295 53.5236
rfemur -7.70522 -4.04909 29.2051
rtibia 20.1418
rfoot -7.75966 -7.73922
rtoes 23.0536
lfemur -8.41542 0.403077 -18.2467
ltibia 56.9229
lfoot 5.58125 -7.54781
ltoes -7.89685
4017
root 0.448315 17.9659 -9.39428 1252.86 70.5739 -1624.77
lowerback 11.254 0.797626 -1.90439
upperback 0.897024 0.927372 0.984993
thorax -5.42125 0.533829 1.95803
lowerneck -18.9051 -6.34432 -12.0188
upperneck 33.9272 -6.93506 7.89981
head 16.0187 -2.99608 4.26984
rclavicle 4.79816e-014 -5.1684e-015
rhumerus -36.9285 -13.5805 -78.4014
rradius 33.2278
rwrist 1.94237
rhand -17.5336 8.88829
rfingers 7.12502
rthumb 8.72048 -20.9116
lclavicle 4.79816e-014 -5.1684e-015
lhumerus -33.5935 -1.6515 87.2834
lradius 32.4568
lwrist -13.4076
lhand -17.5186 24.2164
lfingers 7.12502
lthumb 8.73494 54.0157
rfemur -7.3419 -3.90947 29.2638
rtibia 20.3956
rfoot -8.20696 -7.3665
rtoes 21.8057
lfemur -9.29082 0.481263 -18.2125
ltibia 57.3092
lfoot 4.59319 -6.4476
ltoes -10.6721
4018
root 0.553904 17.9706 -9.42447 1253.12 71.0513 -1624.5
lowerback 11.1326 0.863559 -1.8702
upperback 0.962876 1.02511 1.03192
thorax -5.28927 0.580269 1.97386
lowerneck -18.9797 -6.33135 -11.902
upperneck 33.9245 -6.91411 7.78587
head 16.0193 -2.98887 4.20108
rclavicle -8.69683e-016 1.19271e-014
rhumerus -36.5159 -13.5454 -78.5179
rradius 33.2178
rwrist 1.75294
rhand -17.8115 8.80218
rfingers 7.12502
rthumb 8.45221 -21.0087
lclavicle -8.69683e-016 1.19271e-014
lhumerus -33.6424 -1.56707 87.4184
lradius 32.4424
lwrist -13.5025
lhand -18.6202 25.1785
lfingers 7.12502
lthumb 7.67171 55.0194
rfemur -6.97598 -3.72976 29.4036
rtibia 20.6249
rfoot -8.73678 -7.03811
rtoes 21.6567
lfemur -10.3065 0.0326917 -17.9713
ltibia 57.6254
lfoot 4.20274 -4.8744
ltoes -5.17766
